<svg xmlns="http://www.w3.org/2000/svg" xmlns:xlink="http://www.w3.org/1999/xlink" viewBox="0 0 255.07 78.15"><defs><style>.cls-1{fill:url(#linear-gradient);}.cls-2{fill:url(#linear-gradient-2);}.cls-3{fill:#e6e6e6;}.cls-4{fill:#975af9;}</style><linearGradient id="linear-gradient" x1="-3.01" y1="36.01" x2="106.95" y2="9.13" gradientUnits="userSpaceOnUse"><stop offset="0" stop-color="#408af7"/><stop offset="0.56" stop-color="#6d4df9"/><stop offset="1" stop-color="#46a7f8"/></linearGradient><linearGradient id="linear-gradient-2" x1="5.78" y1="71.95" x2="115.73" y2="45.07" gradientUnits="userSpaceOnUse"><stop offset="0" stop-color="#408af7"/><stop offset="0.56" stop-color="#7e30f9"/><stop offset="1" stop-color="#46a7f8"/></linearGradient></defs><g id="Layer_2" data-name="Layer 2"><g id="Layer_1-2" data-name="Layer 1"><path class="cls-1" d="M68.84,18.23C70,25.7,66.79,31.36,61.58,36a42.46,42.46,0,0,1-8.08,5.68A91,91,0,0,1,19.32,51.82a44,44,0,0,1-13.6-.36C3.46,51,1.14,50.39.27,47.91s.62-4.57,2.23-6.26a50.25,50.25,0,0,1,12.39-9c1-.55,1.56-.27,1.47.9-.14,1.94-.29,3.8-2.4,4.89A9.11,9.11,0,0,0,11.22,41c-1.2,1.5-.85,3,1,3.45a26,26,0,0,0,5.87.42c.25,0,.76-1,.73-1.45a42.82,42.82,0,0,1,2.46-18.15A39.4,39.4,0,0,1,58.45,0c13.5.29,24,6.14,31.94,16.92.71,1,1.2,2.09,1.93,3,.28.37,1.15.74,1.42.57a31.9,31.9,0,0,0,4.87-3.4c1.32-1.22.91-2.63-.86-3.05a32.89,32.89,0,0,0-5.07-.53c-1.14-.09-3.62-2-3.68-3.11a1.34,1.34,0,0,1,.86-1c5.61-.58,11.26-1.15,16.78.55,4.47,1.37,5.52,4.88,2.38,8.39-7.57,8.45-18.43,11.67-29.81,7.17A20.36,20.36,0,0,1,70,18.81a3.05,3.05,0,0,0-.47-.48C69.41,18.27,69.28,18.29,68.84,18.23Z"/><path class="cls-2" d="M81.91,53.12c-.11-1.32-.23-2.15-.25-3-.22-8,3.86-13.69,10-18.24.86-.64,1.83-1.15,2.74-1.74,1.14-.76,1.77-.64,2.1.86a38.32,38.32,0,0,1-2.7,24.87A38,38,0,0,1,56.5,78.08,20.89,20.89,0,0,1,44.75,74c-7.26-5.51-8-15.37-1.53-22.21,6-6.32,13.59-8.46,22.1-7.71,4.8.43,9.31,1.77,13,5A49.87,49.87,0,0,1,81.91,53.12Z"/><path class="cls-3" d="M141,24.06l-4.49,18.77h-5.63l-3-12.56-3,12.56h-5.63l-4.49-18.77h4.94l2.42,13.59,3.29-13.59h5l3.3,13.59,2.44-13.59Z"/><path class="cls-3" d="M154.82,28.75a6.76,6.76,0,0,1,2.74,2.64,8,8,0,0,1,1,4,8,8,0,0,1-1,4,6.76,6.76,0,0,1-2.74,2.64,8.33,8.33,0,0,1-3.94.92,8.44,8.44,0,0,1-4-.92,6.7,6.7,0,0,1-2.74-2.64,7.89,7.89,0,0,1-1-4,7.85,7.85,0,0,1,1-4,6.7,6.7,0,0,1,2.74-2.64,8.44,8.44,0,0,1,4-.92A8.33,8.33,0,0,1,154.82,28.75Zm-6.13,4a3.84,3.84,0,0,0-.89,2.72,3.78,3.78,0,0,0,.89,2.71,3,3,0,0,0,4.37,0,3.82,3.82,0,0,0,.87-2.71,3.88,3.88,0,0,0-.87-2.72,3,3,0,0,0-4.37,0Z"/><path class="cls-3" d="M166,23.18V42.83h-4.54V23.18Z"/><path class="cls-3" d="M178.2,28.6A4.4,4.4,0,0,1,180,30.7V23.18h4.54V42.83H180V40.15a4.45,4.45,0,0,1-1.78,2.1,5.39,5.39,0,0,1-2.92.77A6,6,0,0,1,172,42.1a6.3,6.3,0,0,1-2.28-2.64,9.14,9.14,0,0,1-.84-4,9.15,9.15,0,0,1,.84-4.05A6.31,6.31,0,0,1,172,28.75a6,6,0,0,1,3.28-.92A5.39,5.39,0,0,1,178.2,28.6Zm-3.81,4.17a3.76,3.76,0,0,0-.89,2.65,3.77,3.77,0,0,0,.89,2.66,3.34,3.34,0,0,0,4.7,0,3.7,3.7,0,0,0,.92-2.63,3.71,3.71,0,0,0-.92-2.64,3.11,3.11,0,0,0-2.35-1A3.05,3.05,0,0,0,174.39,32.77Z"/><path class="cls-4" d="M219.54,24.06l-4.49,18.77h-5.62l-3-12.56-3,12.56h-5.63l-4.49-18.77h4.94l2.42,13.59,3.29-13.59h5l3.3,13.59,2.44-13.59Z"/><path class="cls-4" d="M236.4,36.25H226.13a3.4,3.4,0,0,0,.85,2.4,3,3,0,0,0,3.63.23,2.32,2.32,0,0,0,.88-1.31h4.81A6.33,6.33,0,0,1,235,40.38a6.68,6.68,0,0,1-2.5,1.93,7.85,7.85,0,0,1-3.37.71,8,8,0,0,1-3.86-.92,6.58,6.58,0,0,1-2.64-2.64,8.18,8.18,0,0,1-1-4,8.41,8.41,0,0,1,.94-4.05,6.43,6.43,0,0,1,2.65-2.62,8.71,8.71,0,0,1,7.75,0,6.4,6.4,0,0,1,2.59,2.54,7.56,7.56,0,0,1,.91,3.76A6.19,6.19,0,0,1,236.4,36.25Zm-5.24-4.1a2.88,2.88,0,0,0-2-.74,3,3,0,0,0-2.07.75,3.09,3.09,0,0,0-.93,2.18h5.79A2.7,2.7,0,0,0,231.16,32.15Z"/><path class="cls-4" d="M252,28.75a6.31,6.31,0,0,1,2.28,2.62,9.15,9.15,0,0,1,.84,4.05,9.14,9.14,0,0,1-.84,4A6.3,6.3,0,0,1,252,42.1a6,6,0,0,1-3.28.92,5.36,5.36,0,0,1-2.92-.77,4.45,4.45,0,0,1-1.78-2.1v2.68h-4.54V23.18H244V30.7a4.4,4.4,0,0,1,1.78-2.1,5.36,5.36,0,0,1,2.92-.77A6,6,0,0,1,252,28.75Zm-7.09,4a3.71,3.71,0,0,0-.92,2.64,3.7,3.7,0,0,0,.92,2.63,3.34,3.34,0,0,0,4.7,0,3.77,3.77,0,0,0,.89-2.66,3.76,3.76,0,0,0-.89-2.65,3.07,3.07,0,0,0-2.35-1A3.11,3.11,0,0,0,244.86,32.78Z"/></g></g></svg>