<svg xmlns="http://www.w3.org/2000/svg" viewBox="0 0 256.39 78.15"><defs><style>.cls-1,.cls-2{fill:#fff;}.cls-2{font-size:26.55px;font-family:Poppins-Bold, Poppins;font-weight:700;letter-spacing:0.02em;}</style></defs><g id="Layer_2" data-name="Layer 2"><g id="Layer_1-2" data-name="Layer 1"><path class="cls-1" d="M68.84,18.23C70,25.7,66.79,31.36,61.58,36a42.46,42.46,0,0,1-8.08,5.68A91,91,0,0,1,19.32,51.82a44,44,0,0,1-13.6-.36C3.46,51,1.14,50.39.27,47.91s.62-4.57,2.23-6.26a50.25,50.25,0,0,1,12.39-9c1-.55,1.56-.27,1.47.9-.14,1.94-.29,3.8-2.4,4.89A9.11,9.11,0,0,0,11.22,41c-1.2,1.5-.85,3,1,3.45a26,26,0,0,0,5.87.42c.25,0,.76-1,.73-1.45a42.82,42.82,0,0,1,2.46-18.15A39.4,39.4,0,0,1,58.45,0c13.5.29,24,6.14,31.94,16.92.71,1,1.2,2.09,1.93,3,.28.37,1.15.74,1.42.57a31.9,31.9,0,0,0,4.87-3.4c1.32-1.22.91-2.63-.86-3.05a32.89,32.89,0,0,0-5.07-.53c-1.14-.09-3.62-2-3.68-3.11a1.34,1.34,0,0,1,.86-1c5.61-.58,11.26-1.15,16.78.55,4.47,1.37,5.52,4.88,2.38,8.39-7.57,8.45-18.43,11.67-29.81,7.17A20.36,20.36,0,0,1,70,18.81a3.05,3.05,0,0,0-.47-.48C69.41,18.27,69.28,18.29,68.84,18.23Z"/><path class="cls-1" d="M81.91,53.12c-.11-1.32-.23-2.15-.25-3-.22-8,3.86-13.69,10-18.24.86-.64,1.83-1.15,2.74-1.74,1.14-.76,1.77-.64,2.1.86a38.32,38.32,0,0,1-2.7,24.87A38,38,0,0,1,56.5,78.08,20.89,20.89,0,0,1,44.75,74c-7.26-5.51-8-15.37-1.53-22.21,6-6.32,13.59-8.46,22.1-7.71,4.8.43,9.31,1.77,13,5A49.87,49.87,0,0,1,81.91,53.12Z"/><text class="cls-2" transform="translate(113.95 42.83)">Wold Web</text></g></g></svg>